# xmcd
#
# Track frame offsets: 
#        150
#        23045
#        36120
#        66277
#        86412
#        114767
#        129722
#        142631
#        155562
#        169339
#        186599
#        212068
#        234146
#        237256
#        253243
#        271295
#
# Disc length: 3755 seconds
#
# Revision: 0
# Processed by: cddbd v1.5.2PL0 Copyright (c) Steve Scherf et al.
# Submitted via: ExactAudioCopyFreeDBPlugin 1.0
#
DISCID=d90ea910
DTITLE=Laas Unltd. - Daemon (Premium Edition)
DYEAR=2016
DGENRE=Hip-Hop
TTITLE0=Falling down
TTITLE1=Junge
TTITLE2=Fat Lace Battleking
TTITLE3=Madrapper
TTITLE4=Real Rap stories
TTITLE5=Pumpa
TTITLE6=Ihr könnt nicht rappen
TTITLE7=Untergrund Favorit
TTITLE8=Teufel im Nacken
TTITLE9=Er
TTITLE10=Unbreakable
TTITLE11=Zwei Prinzessinnen
TTITLE12=Outro
TTITLE13=Narcotic Farm feat. Kool Keith
TTITLE14=0:30 Uhr
TTITLE15=Fadenkreuz
EXTD=
EXTT0=
EXTT1=
EXTT2=
EXTT3=
EXTT4=
EXTT5=
EXTT6=
EXTT7=
EXTT8=
EXTT9=
EXTT10=
EXTT11=
EXTT12=
EXTT13=
EXTT14=
EXTT15=
PLAYORDER=
